<svg xmlns="http://www.w3.org/2000/svg" viewBox="0 0 760 760" role="img" aria-label="CrisisSignal AI frame 58">
  <defs>
    <linearGradient id="bg" x1="0" y1="0" x2="1" y2="1"><stop offset="0" stop-color="#0a0b0d"/><stop offset="1" stop-color="#20242c"/></linearGradient>
    <filter id="hard"><feDropShadow dx="14" dy="14" stdDeviation="0" flood-color="#000" flood-opacity="1"/></filter>
  </defs>
  <rect width="760" height="760" fill="url(#bg)"/>
  <g opacity="0.12" stroke="#f8f2e8" stroke-width="2"><path d="M0 18 H760"/><path d="M0 82 H760"/><path d="M0 146 H760"/><path d="M0 210 H760"/><path d="M0 274 H760"/><path d="M0 338 H760"/><path d="M0 402 H760"/><path d="M0 466 H760"/><path d="M0 530 H760"/><path d="M0 594 H760"/><path d="M0 658 H760"/><path d="M0 722 H760"/><path d="M18 0 V760"/><path d="M82 0 V760"/><path d="M146 0 V760"/><path d="M210 0 V760"/><path d="M274 0 V760"/><path d="M338 0 V760"/><path d="M402 0 V760"/><path d="M466 0 V760"/><path d="M530 0 V760"/><path d="M594 0 V760"/><path d="M658 0 V760"/><path d="M722 0 V760"/></g>
  <g filter="url(#hard)">
    <rect x="94" y="132" width="258" height="168" fill="#f8f2e8" stroke="#f8f2e8" stroke-width="6"/>
    <rect x="124" y="166" width="194" height="16" fill="#0a0b0d"/>
    <rect x="124" y="204" width="154" height="16" fill="#0a0b0d" opacity="0.7"/>
    <rect x="124" y="242" width="202" height="16" fill="#ff3b30" opacity="0.30"/>
  </g>
  <g transform="translate(518 226)" filter="url(#hard)">
    <circle r="132" fill="#15171c" stroke="#f8f2e8" stroke-width="8"/>
    <circle r="82" fill="none" stroke="#ffbd2e" stroke-width="5" opacity="0.45"/>
    <path d="M0 0 L122 0" stroke="#ffbd2e" stroke-width="8" stroke-linecap="round" transform="rotate(75.0)"/>
    <circle cx="-15.823930871735161" cy="21.688829131655236" r="15" fill="#ff3b30" opacity="0.28"/>
  </g>
  <g filter="url(#hard)">
    <path d="M372 163.1 L452 322 H292 Z" fill="#ff3b30" stroke="#f8f2e8" stroke-width="8" opacity="0.32"/>
    <rect x="365" y="245" width="14" height="46" fill="#0a0b0d"/>
    <rect x="365" y="302" width="14" height="14" fill="#0a0b0d"/>
  </g>
  <path d="M106 510 C220 411.3101266642476 328 610 432 500 S584 412 666 498" fill="none" stroke="#f8f2e8" stroke-width="18" stroke-linecap="round" stroke-dasharray="280 920"/>
  <path d="M106 510 C220 411.3101266642476 328 610 432 500 S584 412 666 498" fill="none" stroke="#27d8ff" stroke-width="10" stroke-linecap="round" stroke-dasharray="280 920"/>
  <g filter="url(#hard)"><rect x="195.18770313189577" y="317.52103791150904" width="46" height="46" fill="#ff3b30" stroke="#f8f2e8" stroke-width="6" transform="rotate(45 218.18770313189577 340.52103791150904)"/><rect x="428.60905395630016" y="396.52041050941307" width="46" height="46" fill="#ffbd2e" stroke="#f8f2e8" stroke-width="6" transform="rotate(45 451.60905395630016 419.52041050941307)"/><rect x="584.3506143505998" y="292.89599113007125" width="46" height="46" fill="#27d8ff" stroke="#f8f2e8" stroke-width="6" transform="rotate(45 607.3506143505998 315.89599113007125)"/></g>
  <g opacity="0.00" filter="url(#hard)">
    <rect x="227.9" y="470" width="220" height="104" fill="#ffbd2e" stroke="#f8f2e8" stroke-width="8"/>
    <rect x="257.9" y="505" width="158" height="14" fill="#0a0b0d"/>
    <rect x="257.9" y="536" width="112" height="14" fill="#0a0b0d" opacity="0.7"/>
  </g>
  <text x="380" y="690" text-anchor="middle" font-family="Inter, Segoe UI, sans-serif" font-size="48" font-weight="1000" letter-spacing="3" fill="#f8f2e8">CLUSTER</text>
</svg>