<svg xmlns="http://www.w3.org/2000/svg" viewBox="0 0 760 760" role="img" aria-label="CrisisSignal AI frame 316">
  <defs>
    <linearGradient id="bg" x1="0" y1="0" x2="1" y2="1"><stop offset="0" stop-color="#0a0b0d"/><stop offset="1" stop-color="#20242c"/></linearGradient>
    <filter id="hard"><feDropShadow dx="14" dy="14" stdDeviation="0" flood-color="#000" flood-opacity="1"/></filter>
  </defs>
  <rect width="760" height="760" fill="url(#bg)"/>
  <g opacity="0.12" stroke="#f8f2e8" stroke-width="2"><path d="M0 18 H760"/><path d="M0 82 H760"/><path d="M0 146 H760"/><path d="M0 210 H760"/><path d="M0 274 H760"/><path d="M0 338 H760"/><path d="M0 402 H760"/><path d="M0 466 H760"/><path d="M0 530 H760"/><path d="M0 594 H760"/><path d="M0 658 H760"/><path d="M0 722 H760"/><path d="M18 0 V760"/><path d="M82 0 V760"/><path d="M146 0 V760"/><path d="M210 0 V760"/><path d="M274 0 V760"/><path d="M338 0 V760"/><path d="M402 0 V760"/><path d="M466 0 V760"/><path d="M530 0 V760"/><path d="M594 0 V760"/><path d="M658 0 V760"/><path d="M722 0 V760"/></g>
  <g filter="url(#hard)">
    <rect x="94" y="132" width="258" height="168" fill="#f8f2e8" stroke="#f8f2e8" stroke-width="6"/>
    <rect x="124" y="166" width="194" height="16" fill="#0a0b0d"/>
    <rect x="124" y="204" width="154" height="16" fill="#0a0b0d" opacity="0.7"/>
    <rect x="124" y="242" width="202" height="16" fill="#ff3b30" opacity="1.00"/>
  </g>
  <g transform="translate(518 226)" filter="url(#hard)">
    <circle r="132" fill="#15171c" stroke="#f8f2e8" stroke-width="8"/>
    <circle r="82" fill="none" stroke="#ffbd2e" stroke-width="5" opacity="0.45"/>
    <path d="M0 0 L122 0" stroke="#ffbd2e" stroke-width="8" stroke-linecap="round" transform="rotate(414.7)"/>
    <circle cx="68.4541243720528" cy="12.915802274797743" r="15" fill="#ff3b30" opacity="1.00"/>
  </g>
  <g filter="url(#hard)">
    <path d="M372 171.1 L452 322 H292 Z" fill="#ff3b30" stroke="#f8f2e8" stroke-width="8" opacity="1.00"/>
    <rect x="365" y="245" width="14" height="46" fill="#0a0b0d"/>
    <rect x="365" y="302" width="14" height="14" fill="#0a0b0d"/>
  </g>
  <path d="M106 510 C220 422.91898102293544 328 610 432 500 S584 412 666 498" fill="none" stroke="#f8f2e8" stroke-width="18" stroke-linecap="round" stroke-dasharray="959 920"/>
  <path d="M106 510 C220 422.91898102293544 328 610 432 500 S584 412 666 498" fill="none" stroke="#27d8ff" stroke-width="10" stroke-linecap="round" stroke-dasharray="959 920"/>
  <g filter="url(#hard)"><rect x="189.41390563386156" y="312.6762831554584" width="46" height="46" fill="#ff3b30" stroke="#f8f2e8" stroke-width="6" transform="rotate(45 212.41390563386156 335.6762831554584)"/><rect x="436.85613784145585" y="378.59996178515263" width="46" height="46" fill="#ffbd2e" stroke="#f8f2e8" stroke-width="6" transform="rotate(45 459.85613784145585 401.59996178515263)"/><rect x="563.3022434427875" y="265.2402282704271" width="46" height="46" fill="#27d8ff" stroke="#f8f2e8" stroke-width="6" transform="rotate(45 586.3022434427875 288.2402282704271)"/></g>
  <g opacity="1.00" filter="url(#hard)">
    <rect x="535.2" y="470" width="220" height="104" fill="#ffbd2e" stroke="#f8f2e8" stroke-width="8"/>
    <rect x="565.2" y="505" width="158" height="14" fill="#0a0b0d"/>
    <rect x="565.2" y="536" width="112" height="14" fill="#0a0b0d" opacity="0.7"/>
  </g>
  <text x="380" y="690" text-anchor="middle" font-family="Inter, Segoe UI, sans-serif" font-size="48" font-weight="1000" letter-spacing="3" fill="#f8f2e8">AUDIT</text>
</svg>